HIERARCHY
ROOT Hips
{
 OFFSET 0.000000 0.000000 0.000000
 CHANNELS 6 Xposition Yposition Zposition Yrotation Xrotation Zrotation
 JOINT Chest
 {
  OFFSET 0.000000 9.585900 0.002600
  CHANNELS 3 Yrotation Xrotation Zrotation
  JOINT Chest2
  {
   OFFSET 0.000000 9.601200 -0.005300
   CHANNELS 3 Yrotation Xrotation Zrotation
   JOINT Chest3
   {
    OFFSET 0.000000 9.561800 0.000000
    CHANNELS 3 Yrotation Xrotation Zrotation
    JOINT Chest4
    {
     OFFSET 0.000000 9.552100 0.000000
     CHANNELS 3 Yrotation Xrotation Zrotation
     JOINT Neck
     {
      OFFSET 0.000000 14.453000 0.000000
      CHANNELS 3 Yrotation Xrotation Zrotation
      JOINT Head
      {
       OFFSET 0.000000 8.936500 -0.011300
       CHANNELS 3 Yrotation Xrotation Zrotation
       End Site
       {
        OFFSET 0.000000 17.073600 -0.006000
       }
      }
     }
     JOINT RightCollar
     {
      OFFSET -2.921100 9.558500 0.000000
      CHANNELS 3 Yrotation Xrotation Zrotation
      JOINT RightShoulder
      {
       OFFSET -13.519700 0.000000 0.000000
       CHANNELS 3 Yrotation Xrotation Zrotation
       JOINT RightElbow
       {
        OFFSET 0.000000 -29.696600 0.000000
        CHANNELS 3 Yrotation Xrotation Zrotation
        JOINT RightWrist
        {
         OFFSET 0.000000 -24.004700 0.000000
         CHANNELS 3 Yrotation Xrotation Zrotation
         End Site
         {
          OFFSET 0.000000 -17.728500 0.000000
         }
        }
       }
      }
     }
     JOINT LeftCollar
     {
      OFFSET 2.921100 9.558500 0.000000
      CHANNELS 3 Yrotation Xrotation Zrotation
      JOINT LeftShoulder
      {
       OFFSET 13.519700 0.000000 0.000000
       CHANNELS 3 Yrotation Xrotation Zrotation
       JOINT LeftElbow
       {
        OFFSET 0.000000 -29.696600 0.000000
        CHANNELS 3 Yrotation Xrotation Zrotation
        JOINT LeftWrist
        {
         OFFSET 0.000000 -24.004700 0.000000
         CHANNELS 3 Yrotation Xrotation Zrotation
         End Site
         {
          OFFSET 0.000000 -17.728500 0.000000
         }
        }
       }
      }
     }
    }
   }
  }
 }
 JOINT RightHip
 {
  OFFSET -7.771700 -0.012900 -0.001300
  CHANNELS 3 Yrotation Xrotation Zrotation
  JOINT RightKnee
  {
   OFFSET 0.000000 -40.869800 0.001200
   CHANNELS 3 Yrotation Xrotation Zrotation
   JOINT RightAnkle
   {
    OFFSET 0.000000 -39.717900 0.002100
    CHANNELS 3 Yrotation Xrotation Zrotation
    JOINT RightToe
    {
     OFFSET 0.000000 -4.965400 11.033500
     CHANNELS 3 Yrotation Xrotation Zrotation
     End Site
     {
      OFFSET 0.000000 -1.423100 5.872300
     }
    }
   }
  }
 }
 JOINT LeftHip
 {
  OFFSET 7.771700 -0.012900 -0.001300
  CHANNELS 3 Yrotation Xrotation Zrotation
  JOINT LeftKnee
  {
   OFFSET 0.000000 -40.869800 0.001200
   CHANNELS 3 Yrotation Xrotation Zrotation
   JOINT LeftAnkle
   {
    OFFSET 0.000000 -39.717900 0.002100
    CHANNELS 3 Yrotation Xrotation Zrotation
    JOINT LeftToe
    {
     OFFSET 0.000000 -4.965400 11.033500
     CHANNELS 3 Yrotation Xrotation Zrotation
     End Site
     {
      OFFSET 0.000000 -1.423100 5.872300
     }
    }
   }
  }
 }
}
MOTION
Frames: 16
Frame Time: 0.008333
0.000000 85.388000 0.000000 0.000000 -5.767877 0.000000 0.000000 11.653817 0.000000 0.000000 -5.885947 0.000000 0.000000 -0.000000 0.000000 0.000000 -0.000000 0.000000 0.000000 12.528835 0.000000 0.000000 0.711642 0.000000 0.000000 -0.000000 0.000000 0.000000 0.000000 -90.000000 0.000000 -2.309062 0.000000 0.000000 2.309062 0.000000 0.000000 -0.000000 0.000000 0.000000 -0.000000 90.000000 0.000000 -2.309062 0.000000 0.000000 2.309062 0.000000 0.000000 8.520406 0.000000 0.000000 1.905762 0.000000 -0.000000 -4.658285 0.000000 0.000000 -0.000000 0.000000 0.000000 8.520406 0.000000 0.000000 1.905762 0.000000 -0.000000 -4.658285 0.000000 0.000000 -0.000000 0.000000
-60.275760 50.422988 -1.439508 166.164951 -7.177435 -1.304949 3.166062 6.130905 0.621923 0.155101 0.258614 0.075717 0.244115 0.464714 -0.024242 3.121334 5.955594 -0.161132 5.057930 21.225430 -0.353946 9.269337 3.789593 -2.069247 3.474576 4.433296 -0.799322 7.109690 -16.683493 -7.781373 -15.623704 -51.640206 36.242636 -4.651498 -4.345106 -19.887556 -6.977735 -0.271876 2.484559 0.596382 -14.926019 6.918036 32.607316 -66.106525 -74.994978 1.773096 4.313927 3.419934 -4.002908 -72.883159 -2.796431 -117.658250 79.532587 -115.949831 -0.888731 -16.256469 0.891150 -0.525196 1.033423 -0.274350 -15.595852 -77.114671 29.552683 114.579219 78.402509 111.810003 -15.367616 -23.423461 -1.324994 -0.215616 -0.987980 -0.043870
-60.279701 50.424228 -1.426645 166.120443 -7.229600 -1.267976 3.251229 6.178596 0.755081 0.149564 0.269252 0.011147 0.248906 0.472424 -0.019845 3.158325 6.000268 -0.099802 4.961307 21.194290 -0.359123 9.096973 3.726492 -2.053717 3.443349 4.648920 -0.666723 6.941708 -16.595311 -8.107916 -19.316910 -49.435379 38.707360 -5.344394 -4.821581 -21.444919 -6.830309 -0.043496 2.378680 0.691127 -14.740385 7.081380 28.807668 -65.329266 -70.155095 1.613963 4.583953 4.340205 -3.877371 -72.848790 -2.913974 -117.684116 79.563374 -115.949981 -0.902021 -16.219046 0.866447 -0.502735 1.017617 -0.277638 -15.319176 -77.069340 29.340285 114.536676 78.428649 111.763533 -15.420766 -23.423533 -1.321685 -0.194058 -0.992258 -0.033900
-60.286622 50.425276 -1.407486 166.100438 -7.255640 -1.224743 3.342767 6.219075 0.834996 0.146248 0.274711 -0.008870 0.256397 0.481915 -0.015177 3.219673 6.049938 -0.034557 4.843720 21.137408 -0.363825 8.887321 3.614364 -2.033173 3.335384 4.791334 -0.551554 6.430057 -16.295014 -8.364159 -22.566834 -47.996818 40.947801 -5.936446 -5.444881 -22.474576 -6.700255 0.160619 2.293118 1.008131 -14.699396 7.334812 25.762986 -64.223122 -66.393358 1.627729 4.687211 5.412800 -3.812867 -72.846368 -3.030974 -117.787993 79.617853 -116.040106 -0.859112 -16.169641 0.854538 -0.531821 0.990126 -0.304106 -15.107591 -77.049989 29.190118 114.488092 78.472147 111.676186 -15.485215 -23.389359 -1.302535 -0.160536 -0.998555 -0.007469
-60.298351 50.426070 -1.378671 166.158369 -7.224231 -1.179713 3.381976 6.219666 0.877513 0.151954 0.281196 -0.006196 0.266379 0.493004 -0.010358 3.302576 6.103944 0.032688 4.708726 21.055201 -0.371855 8.648065 3.454647 -2.015269 3.132630 4.848418 -0.467107 5.750395 -15.702311 -8.483907 -25.240526 -47.543325 42.748841 -6.350388 -6.123084 -22.875629 -6.601105 0.340166 2.231413 1.480568 -14.710754 7.685696 23.754432 -62.890822 -63.893735 1.835093 4.581201 6.457733 -3.776303 -72.891526 -3.178253 -117.794415 79.656089 -116.026990 -0.856839 -16.144737 0.809815 -0.520461 0.989811 -0.281511 -14.996829 -77.093244 29.043102 114.259721 78.483453 111.373695 -15.446468 -23.313330 -1.266547 -0.177938 -1.022180 -0.020642
-60.306196 50.429867 -1.358393 166.197011 -7.249283 -1.148780 3.469218 6.292364 0.942577 0.158565 0.288450 -0.003535 0.277838 0.505428 -0.005586 3.396442 6.162802 0.098849 4.566361 20.950642 -0.389331 8.398949 3.253978 -2.013455 2.835563 4.823893 -0.432711 4.968351 -14.891340 -8.453632 -27.452615 -48.170590 44.199774 -6.457124 -6.554469 -22.764058 -6.537053 0.488241 2.191176 2.023783 -14.633869 8.129270 22.962795 -61.444033 -62.723485 2.205354 4.316130 7.279903 -3.731481 -72.873790 -3.290943 -117.781111 79.677298 -116.004910 -0.861197 -16.125541 0.805739 -0.512306 0.986769 -0.280511 -14.862938 -77.078633 28.880962 114.116929 78.493255 111.192786 -15.411731 -23.263954 -1.284847 -0.203770 -1.053370 -0.017339
-60.321107 50.436091 -1.339363 166.244430 -7.266312 -1.085799 3.547970 6.376010 0.978539 0.165067 0.296142 -0.000917 0.289060 0.518665 -0.000948 3.483883 6.226872 0.161626 4.430332 20.827876 -0.422732 8.166347 3.021238 -2.043017 2.473095 4.736439 -0.467462 4.013924 -14.060420 -8.326163 -29.246122 -49.737394 45.445239 -6.258917 -6.630912 -22.294652 -6.495788 0.595303 2.165548 2.584998 -14.340656 8.670802 23.437031 -59.996192 -62.868956 2.688124 3.963736 7.774908 -3.665224 -72.869483 -3.477014 -117.855032 79.726177 -116.088117 -0.825563 -16.103299 0.824233 -0.538099 0.976588 -0.326813 -14.604733 -77.080657 28.582267 113.975203 78.505972 111.011449 -15.413535 -23.191211 -1.268003 -0.223267 -1.084722 -0.011495
-60.328852 50.445963 -1.319537 166.257914 -7.281387 -1.073695 3.641512 6.465462 1.075918 0.169921 0.303611 0.001751 0.297487 0.531471 0.003719 3.541277 6.294491 0.222068 4.317085 20.693799 -0.476527 7.981287 2.770274 -2.116467 2.100761 4.609456 -0.583874 2.795872 -13.387782 -8.170924 -30.528759 -51.887251 46.533023 -5.869268 -6.515796 -21.578289 -6.443947 0.659338 2.143156 3.157985 -13.769039 9.307757 25.053045 -58.661835 -64.176803 3.216462 3.569099 7.922671 -3.756270 -72.857575 -3.473725 -117.860691 79.781740 -116.084114 -0.774912 -16.058371 0.796883 -0.563735 0.950593 -0.350669 -14.448150 -77.102517 28.449733 113.959392 78.531817 110.998979 -15.456370 -23.090907 -1.242368 -0.204974 -1.160439 -0.015708
-60.336458 50.460176 -1.303730 166.228736 -7.310479 -1.065567 3.727820 6.568837 1.189442 0.171689 0.309872 0.004545 0.300441 0.542131 0.008552 3.547308 6.360553 0.281029 4.241429 20.558299 -0.549154 7.870218 2.519876 -2.234813 1.762420 4.471077 -0.781463 1.315232 -12.954442 -8.039611 -31.302621 -54.283240 47.516243 -5.371564 -6.379208 -20.707818 -6.342716 0.694376 2.117963 3.788037 -12.941338 10.017362 27.531157 -57.534350 -66.365474 3.722040 3.170030 7.756958 -3.833899 -72.826189 -3.435091 -117.777255 79.830053 -115.986499 -0.739332 -16.006338 0.760090 -0.571687 0.924313 -0.354359 -14.260566 -77.097053 28.311357 113.929337 78.546730 110.990170 -15.487160 -23.032392 -1.254830 -0.209655 -1.212083 -0.007862
-60.356899 50.477144 -1.283894 166.285660 -7.283667 -1.014667 3.656852 6.613515 1.245624 0.169580 0.313782 0.007272 0.296623 0.548836 0.013360 3.493608 6.415498 0.336066 4.209798 20.431882 -0.630816 7.841729 2.289280 -2.381692 1.460943 4.350466 -1.046973 -0.323862 -12.756942 -7.969888 -31.753888 -56.706829 48.516936 -4.862379 -6.275331 -19.788276 -6.167253 0.720941 2.099870 4.553835 -11.937275 10.769006 30.509845 -56.661236 -69.104817 4.146118 2.796046 7.338663 -3.862467 -72.850200 -3.546850 -117.696596 79.878516 -115.907843 -0.710843 -15.973667 0.728747 -0.572865 0.913261 -0.351783 -13.942805 -77.158733 27.952806 113.767597 78.566434 110.823438 -15.499011 -22.932864 -1.237350 -0.184080 -1.287180 -0.023263
-60.373062 50.496869 -1.257527 166.294062 -7.211465 -1.006503 3.577261 6.598470 1.337672 0.164027 0.314716 0.009657 0.287014 0.550598 0.017536 3.390770 6.450607 0.381172 4.217472 20.321604 -0.705366 7.882169 2.090451 -2.526218 1.165522 4.258607 -1.353575 -2.008638 -12.747177 -7.989011 -32.163786 -59.005992 49.698645 -4.439167 -6.170430 -18.919796 -5.917192 0.752089 2.114458 5.520417 -10.858723 11.530763 33.632766 -56.066270 -72.072826 4.458675 2.451644 6.749226 -4.033373 -72.911817 -3.466537 -117.433214 79.916610 -115.616758 -0.694810 -15.914852 0.647727 -0.527333 0.894583 -0.325837 -13.789997 -77.255105 27.816434 113.611477 78.592458 110.667744 -15.477446 -22.857468 -1.217261 -0.229801 -1.333419 -0.033564
-60.394038 50.519803 -1.240467 166.324109 -7.169576 -0.973162 3.430341 6.608338 1.382083 0.156455 0.313037 0.011293 0.273928 0.547838 0.020285 3.260856 6.463614 0.408963 4.251651 20.229687 -0.755180 7.962987 1.925577 -2.632568 0.844837 4.185383 -1.662694 -3.684905 -12.875152 -8.116774 -32.802766 -61.052270 51.251799 -4.128701 -6.036976 -18.182407 -5.612290 0.789287 2.192132 6.698344 -9.808134 12.273836 36.679003 -55.768049 -75.039057 4.660531 2.152586 6.111774 -4.140823 -72.941270 -3.463843 -117.268792 79.963903 -115.468776 -0.669264 -15.879513 0.621253 -0.543382 0.883450 -0.308536 -13.465271 -77.327226 27.489548 113.453358 78.615982 110.517482 -15.513973 -22.780715 -1.181523 -0.223446 -1.393211 -0.038464
-60.418669 50.542909 -1.217704 166.404074 -7.068426 -0.943126 3.210403 6.556750 1.391962 0.148015 0.309326 0.011851 0.259253 0.541462 0.021245 3.120002 6.455987 0.415522 4.298804 20.156980 -0.768248 8.055859 1.794526 -2.674819 0.496574 4.114101 -1.945495 -5.338105 -13.106028 -8.367110 -33.869290 -62.759847 53.349649 -3.915585 -5.880621 -17.611685 -5.271535 0.824377 2.354353 8.051798 -8.870236 12.972414 39.583254 -55.746054 -77.888807 4.753947 1.934562 5.557511 -4.298345 -73.024848 -3.454700 -117.062346 80.004653 -115.281018 -0.651302 -15.852219 0.598392 -0.533055 0.877934 -0.306902 -13.207770 -77.452428 27.188038 113.159287 78.622293 110.185733 -15.492618 -22.709765 -1.128046 -0.308904 -1.423262 -0.053382
-60.438562 50.567368 -1.208594 166.439095 -7.031811 -0.921953 3.030218 6.565595 1.393174 0.139276 0.303911 0.011522 0.244109 0.532289 0.020690 2.976211 6.430043 0.403905 4.347103 20.105444 -0.742605 8.138434 1.700038 -2.645743 0.145002 4.034218 -2.193452 -6.977897 -13.415059 -8.742125 -35.429848 -64.110052 56.025638 -3.790965 -5.728856 -17.192404 -4.897232 0.849671 2.603109 9.525090 -8.105743 13.604597 42.302761 -55.936689 -80.540834 4.751677 1.811178 5.149108 -4.415841 -73.040843 -3.426592 -116.904108 80.046144 -115.149826 -0.636551 -15.827333 0.596932 -0.531220 0.865304 -0.319468 -12.889857 -77.507046 26.864821 112.964028 78.636133 109.996343 -15.506777 -22.666744 -1.102960 -0.327291 -1.461907 -0.056498
-60.461568 50.589519 -1.196985 166.460648 -6.950874 -0.885219 2.859358 6.523733 1.356895 0.130712 0.297201 0.010616 0.229275 0.520884 0.019028 2.836493 6.387985 0.379438 4.386980 20.078030 -0.681790 8.194160 1.647123 -2.548672 -0.182130 3.947031 -2.403499 -8.618418 -13.782833 -9.234601 -37.505099 -65.118985 59.241500 -3.745422 -5.608300 -16.887182 -4.480644 0.863891 2.925865 11.073529 -7.544323 14.157363 44.759689 -56.275976 -82.930211 4.695729 1.758193 4.883974 -4.400007 -73.112127 -3.496658 -116.756512 80.067919 -115.011430 -0.660184 -15.797268 0.595643 -0.506722 0.853267 -0.305870 -12.541036 -77.598701 26.523846 112.748140 78.649408 109.775917 -15.517546 -22.644100 -1.081394 -0.337430 -1.475917 -0.046908
-60.480293 50.608999 -1.187846 166.450578 -6.863749 -0.860308 2.729040 6.461982 1.320791 0.122826 0.289556 0.009252 0.215581 0.507711 0.016540 2.710011 6.330820 0.344807 4.410055 20.076533 -0.588943 8.208639 1.638797 -2.386642 -0.472809 3.857988 -2.569395 -10.239433 -14.188704 -9.836324 -40.137266 -65.792922 62.980485 -3.738369 -5.513736 -16.641054 -4.027887 0.868784 3.308123 12.668830 -7.177221 14.636346 46.924806 -56.699614 -85.060720 4.625854 1.744922 4.732026 -4.398191 -73.188826 -3.517483 -116.541923 80.073216 -114.795906 -0.667459 -15.763001 0.574783 -0.489877 0.842237 -0.267938 -12.253347 -77.685106 26.281491 112.563818 78.665068 109.578002 -15.512015 -22.646576 -1.062632 -0.351984 -1.477401 -0.045721
